<?xml version="1.0" standalone="no"?>
<!DOCTYPE svg PUBLIC "-//W3C//DTD SVG 20010904//EN"
 "http://www.w3.org/TR/2001/REC-SVG-20010904/DTD/svg10.dtd">
<svg version="1.0" xmlns="http://www.w3.org/2000/svg"
 width="64.000000pt" height="64.000000pt" viewBox="0 0 64.000000 64.000000"
 preserveAspectRatio="xMidYMid meet">

<g transform="translate(0.000000,64.000000) scale(0.100000,-0.100000)"
fill="#000000" stroke="none">
<path d="M243 621 c-53 -25 -73 -63 -84 -160 -8 -73 -9 -75 -58 -118 -57 -50
-94 -117 -89 -165 3 -28 7 -34 31 -36 16 -2 35 2 43 9 17 14 16 15 31 -29 10
-27 9 -38 -4 -61 -33 -56 -26 -58 208 -57 197 1 214 2 217 19 2 10 -3 29 -12
41 -12 20 -13 30 -3 57 15 45 14 44 31 30 8 -7 27 -11 43 -9 64 7 30 124 -58
201 -49 43 -50 45 -58 118 -5 41 -16 90 -25 108 -20 38 -83 71 -136 71 -19 0
-54 -9 -77 -19z m48 -102 c8 -15 8 -24 0 -32 -23 -23 -2 -87 29 -87 31 0 52
64 29 87 -17 17 7 53 37 53 34 0 44 -33 37 -117 -4 -52 0 -86 16 -143 33 -116
27 -171 -19 -190 -15 -6 -33 -22 -40 -36 -11 -20 -21 -24 -56 -24 -34 0 -49 6
-77 33 -19 17 -42 38 -52 46 -15 12 -17 25 -12 80 3 36 14 88 23 115 12 36 15
66 11 118 -7 85 3 118 37 118 15 0 30 -8 37 -21z m47 -71 c-2 -13 -10 -23 -18
-23 -8 0 -16 10 -18 23 -3 17 2 22 18 22 16 0 21 -5 18 -22z m-110 -384 c42
-29 28 -44 -43 -44 -69 0 -79 8 -48 42 20 22 61 23 91 2z m270 0 c42 -29 28
-44 -43 -44 -50 0 -65 3 -65 14 0 19 38 46 65 46 11 0 31 -7 43 -16z"/>
<path d="M242 498 c6 -18 28 -21 28 -4 0 9 -7 16 -16 16 -9 0 -14 -5 -12 -12z"/>
<path d="M370 494 c0 -17 22 -14 28 4 2 7 -3 12 -12 12 -9 0 -16 -7 -16 -16z"/>
</g>
</svg>
